<?xml version="1.0" encoding="utf-8"?>
<!-- Generator: Adobe Illustrator 22.0.0, SVG Export Plug-In . SVG Version: 6.00 Build 0)  -->
<svg version="1.1" id="Layer_1" xmlns="http://www.w3.org/2000/svg" xmlns:xlink="http://www.w3.org/1999/xlink" x="0px" y="0px"
	 viewBox="0 0 1920 1080" style="enable-background:new 0 0 1920 1080;" xml:space="preserve">
<style type="text/css">
	.st0{fill:url(#SVGID_1_);}
	.st1{fill:url(#SVGID_2_);}
</style>
<linearGradient id="SVGID_1_" gradientUnits="userSpaceOnUse" x1="1548.9072" y1="503.6972" x2="2560.0847" y2="503.6972" gradientTransform="matrix(-0.4695 -0.8829 0.8829 -0.4695 1313.7205 2200.6609)">
	<stop  offset="0" style="stop-color:#00D8FF"/>
	<stop  offset="9.360408e-02" style="stop-color:#05CFF9"/>
	<stop  offset="0.2487" style="stop-color:#11B5E8"/>
	<stop  offset="0.3743" style="stop-color:#1E9CD7"/>
	<stop  offset="0.781" style="stop-color:#0075BE"/>
	<stop  offset="0.9944" style="stop-color:#005B97"/>
</linearGradient>
<path class="st0" d="M264.1,688.4c22.3-94.4,7.9-208.3-5.1-311.4c-9.8-77.5-24.3-140.7,0-224c0,0,19.8-65.3,66-122
	c143.9-176.8,650.6-77.2,1370-56c194,5.7,253.8,1.3,264,32c40.8,122.4-787.2,563.9-962,385C916.7,309.8,931.1,57.8,826,0
	c-48.4-26.6-79.3-16.1-211-9C234.7,11.5,15.5-60.4-21,24c-7.4,17.1-3.9,32.9-1,48c33.6,172.5,3.6,351.5,11,527
	c4,95.3,8.9,230.1,12,395C80.7,949.4,225.8,850.5,264.1,688.4z"/>
<linearGradient id="SVGID_2_" gradientUnits="userSpaceOnUse" x1="-453" y1="87" x2="-453" y2="87">
	<stop  offset="0" style="stop-color:#00D8FF"/>
	<stop  offset="9.360408e-02" style="stop-color:#05CFF9"/>
	<stop  offset="0.2487" style="stop-color:#11B5E8"/>
	<stop  offset="0.3743" style="stop-color:#1E9CD7"/>
	<stop  offset="0.781" style="stop-color:#0075BE"/>
	<stop  offset="0.9944" style="stop-color:#005B97"/>
</linearGradient>
<path class="st1" d="M-453,87"/>
</svg>
